<?xml version="1.0" standalone="no"?>
<!DOCTYPE svg PUBLIC "-//W3C//DTD SVG 20010904//EN"
 "http://www.w3.org/TR/2001/REC-SVG-20010904/DTD/svg10.dtd">
<svg version="1.0" xmlns="http://www.w3.org/2000/svg"
 width="729.838254pt" height="178.991744pt" viewBox="0 0 729.838254 178.991744"
 preserveAspectRatio="xMidYMid meet">
<metadata>
Created by Potrace Professional 1.1m
</metadata>
<g transform="translate(-29.000000,239.000000) rotate(-360.00) scale(0.095238,-0.095238)"
fill="#FFFFFF" stroke="none">
<path d="M305 2490 c0 -15 10 -21 42 -25 54 -8 89 -30 112 -74 17 -31 19 -83
19 -727 0 -648 -2 -696 -20 -743 -20 -54 -47 -74 -114 -87 -29 -5 -40 -12 -39
-27 0 -19 14 -19 375 -19 206 0 418 4 470 10 355 40 586 188 714 457 61 129
79 207 86 367 6 171 -17 296 -78 427 -97 205 -243 333 -460 402 -166 52 -236
59 -689 59 -402 0 -418 -1 -418 -20z m918 -91 c178 -49 318 -163 393 -321 77
-162 107 -350 86 -540 -17 -147 -35 -215 -87 -319 -79 -158 -212 -266 -386
-313 -53 -15 -109 -19 -247 -19 -198 0 -252 8 -267 36 -7 12 -11 303 -12 753
l-2 734 67 7 c116 11 386 1 455 -18z"/>
<path d="M1544 2495 c0 -9 20 -20 52 -27 60 -15 100 -43 111 -77 4 -13 39 -57
78 -98 39 -41 89 -107 112 -147 l40 -72 3 169 3 169 71 7 c314 29 464 -26 547
-203 25 -53 27 -70 27 -195 0 -133 -1 -138 -34 -207 -41 -82 -107 -145 -179
-171 -27 -10 -99 -20 -162 -23 l-113 -6 0 -35 0 -35 78 0 78 0 144 -213 c280
-413 380 -533 510 -609 103 -61 184 -83 328 -89 114 -5 124 -4 120 13 -2 11
-24 24 -61 36 -121 37 -254 147 -414 342 -143 173 -394 516 -394 537 0 6 23
18 53 29 63 23 164 95 202 145 75 97 111 245 91 371 -34 216 -178 356 -401
393 -37 6 -247 10 -478 10 -347 0 -412 -2 -412 -14z"/>
<path d="M3392 1571 l0 -174 84 0 c48 0 99 6 119 14 93 39 125 172 61 258 -35
47 -80 65 -176 71 l-88 6 0 -175z m217 84 c29 -32 35 -46 35 -89 0 -86 -61
-138 -163 -138 l-47 0 0 138 0 138 70 -6 c64 -5 74 -9 105 -43z"/>
<path d="M3894 1694 c-12 -28 -48 -107 -79 -175 -31 -68 -56 -125 -56 -127 0
-2 12 -1 26 2 18 3 29 16 37 40 7 21 19 36 30 37 9 0 54 1 98 2 l81 2 18 -39
c13 -29 24 -39 41 -39 22 0 19 9 -53 170 -61 136 -81 171 -99 174 -18 3 -26
-7 -44 -47z m80 -85 c16 -39 31 -77 34 -84 4 -10 -14 -13 -69 -13 -41 0 -75 4
-75 8 0 16 67 160 74 160 4 0 21 -32 36 -71z"/>
<path d="M4224 1736 c-10 -4 -13 -48 -13 -172 0 -160 0 -167 21 -167 19 0 21
7 21 133 l0 134 31 -36 c17 -21 63 -81 102 -134 52 -71 78 -96 95 -97 l24 0
-3 170 c-2 153 -5 171 -21 174 -17 3 -19 -9 -19 -136 0 -126 -2 -138 -16 -119
-77 104 -198 257 -203 256 -3 0 -12 -3 -19 -6z"/>
<path d="M4845 1733 c-3 -2 -4 -82 -4 -177 0 -153 1 -172 16 -166 9 4 66 7
126 7 90 0 110 2 110 15 0 13 -19 16 -105 16 l-105 0 0 58 0 58 94 0 c88 0 95
1 95 21 0 19 -7 21 -96 21 l-95 0 4 55 3 55 102 3 c80 2 103 6 103 17 0 12
-26 16 -122 18 -67 2 -124 2 -126 -1z"/>
<path d="M5702 1567 c0 -164 0 -170 21 -170 18 0 21 7 21 63 l0 63 46 0 c43 0
49 -4 83 -51 49 -67 74 -88 95 -80 14 5 8 17 -32 69 -27 34 -47 63 -45 65 3 1
17 9 32 16 59 30 69 112 21 160 -32 32 -38 33 -166 35 l-76 1 0 -171z m203
112 c33 -26 36 -64 7 -93 -17 -17 -35 -21 -95 -21 l-73 0 0 61 c0 33 3 64 7
68 3 4 33 7 66 7 45 0 67 -6 88 -22z"/>
<path d="M6290 1570 c0 -166 0 -173 21 -173 19 0 21 7 21 133 l1 134 63 -128
c44 -88 69 -129 81 -129 12 0 31 34 63 110 71 170 74 171 75 13 0 -127 1 -133
21 -133 21 0 21 5 19 170 l-3 171 -30 0 c-28 0 -33 -8 -85 -124 -30 -69 -59
-124 -65 -124 -5 0 -35 57 -67 127 -53 117 -59 126 -86 126 l-29 0 0 -173z"/>
<path d="M6817 1736 c-10 -4 -13 -48 -13 -172 0 -160 1 -167 21 -167 19 0 21
8 23 137 l3 137 60 -130 c42 -91 64 -129 77 -129 13 0 33 34 70 118 29 65 57
116 62 112 5 -3 10 -59 10 -125 0 -114 1 -120 21 -120 20 0 21 5 18 170 l-3
171 -30 0 c-29 0 -34 -7 -77 -105 -26 -58 -51 -116 -56 -130 -6 -13 -14 -22
-18 -19 -4 3 -34 62 -65 132 -56 124 -65 135 -103 120z"/>
<path d="M7319 1576 c0 -93 1 -172 2 -176 2 -4 57 -8 123 -8 107 -1 121 1 124
18 4 16 -7 18 -102 18 l-105 0 0 58 0 58 94 0 c88 0 95 1 95 21 0 19 -7 21
-96 21 l-95 0 4 55 3 55 97 3 c77 2 97 6 97 18 0 13 -20 16 -104 16 -57 0
-112 2 -121 6 -15 6 -16 -13 -16 -163z"/>
<path d="M7692 1735 c-3 -3 -6 -80 -6 -171 0 -141 2 -166 17 -172 9 -3 18 -6
21 -6 2 0 4 31 4 68 l0 69 50 -1 c49 -1 51 -3 98 -66 28 -38 57 -66 71 -68 32
-5 28 9 -19 69 -43 53 -52 76 -32 76 7 0 23 12 37 26 20 19 26 37 26 72 0 65
-35 98 -108 105 -73 7 -151 7 -159 -1z m210 -60 c20 -27 19 -68 -2 -91 -14
-16 -33 -19 -95 -19 l-77 0 0 61 c0 33 4 65 8 69 4 4 40 6 80 4 55 -3 75 -9
86 -24z"/>
<path d="M4652 1565 c0 -161 0 -168 21 -168 20 0 21 7 21 168 0 161 -1 168
-21 168 -21 0 -21 -7 -21 -168z"/>
<path d="M5208 1565 l0 -167 116 -3 c112 -4 115 -3 115 19 0 19 -5 22 -38 17
-21 -3 -64 -2 -95 2 l-56 7 0 146 c0 140 -1 147 -21 147 -20 0 -21 -7 -21
-168z"/>
<path d="M6101 1565 c0 -161 0 -168 21 -168 20 0 21 7 21 168 0 161 -1 168
-21 168 -21 0 -21 -7 -21 -168z"/>
<path d="M1899 1176 c-36 -64 -124 -175 -167 -210 -10 -9 -27 -36 -37 -60 -13
-34 -27 -49 -61 -66 -25 -11 -57 -21 -73 -21 -21 0 -28 -5 -28 -21 0 -21 7
-21 299 -21 293 0 300 0 300 21 0 15 -7 21 -25 21 -34 0 -92 21 -116 41 -34
29 -42 65 -48 227 l-6 157 -38 -68z"/>
</g>
</svg>
