<?xml version="1.0" standalone="no"?>
<!DOCTYPE svg PUBLIC "-//W3C//DTD SVG 20010904//EN"
 "http://www.w3.org/TR/2001/REC-SVG-20010904/DTD/svg10.dtd">
<svg version="1.0" xmlns="http://www.w3.org/2000/svg"
 width="290.897175pt" height="178.991744pt" viewBox="0 0 290.897175 178.991744"
 preserveAspectRatio="xMidYMid meet">
<metadata>
Created by Potrace Professional 1.1m
</metadata>
<g transform="translate(-56.000000,230.000000) rotate(-360.00) scale(0.095238,-0.095238)"
fill="#FFFFFF" stroke="none">
<path d="M588 2395 c0 -15 10 -21 42 -25 54 -7 89 -30 113 -73 17 -32 18 -84
18 -727 0 -648 -1 -697 -19 -743 -21 -54 -48 -74 -115 -87 -29 -5 -39 -13 -39
-27 0 -19 14 -20 375 -20 207 0 418 5 470 11 355 40 587 188 714 456 62 130
80 207 86 368 7 170 -16 296 -78 426 -97 206 -242 333 -459 402 -166 53 -237
59 -689 59 -402 0 -419 -1 -419 -20z m919 -91 c178 -48 318 -162 393 -320 77
-162 107 -350 85 -540 -16 -148 -35 -215 -87 -320 -79 -158 -212 -265 -386
-313 -53 -14 -109 -18 -247 -18 -197 0 -252 7 -267 35 -6 12 -11 304 -12 753
l-1 734 67 7 c116 12 386 1 455 -18z"/>
<path d="M1827 2400 c0 -9 20 -19 52 -27 60 -14 101 -42 112 -76 4 -13 39 -57
78 -99 39 -41 89 -107 111 -147 l41 -72 3 169 3 170 70 6 c314 30 465 -26 547
-203 25 -53 28 -69 28 -194 0 -134 -1 -139 -35 -207 -40 -82 -107 -146 -178
-171 -28 -10 -100 -20 -163 -24 l-112 -5 0 -36 0 -35 78 0 78 0 144 -213 c279
-413 379 -532 509 -609 103 -61 185 -83 328 -89 114 -5 124 -4 121 13 -2 12
-24 25 -62 36 -121 38 -254 148 -414 342 -142 174 -394 517 -394 538 0 5 24
18 53 28 63 23 165 96 203 145 74 98 110 246 90 371 -34 216 -177 357 -400
393 -38 6 -248 11 -479 11 -346 0 -412 -2 -412 -15z"/>
<path d="M2182 1082 c-36 -65 -124 -176 -166 -210 -11 -9 -27 -36 -37 -60 -13
-34 -28 -49 -62 -66 -24 -12 -57 -21 -72 -21 -21 0 -28 -6 -28 -21 0 -21 7
-21 299 -21 292 0 299 0 299 21 0 15 -7 21 -25 21 -34 0 -92 20 -115 40 -35
30 -42 66 -48 227 l-6 158 -39 -68z"/>
</g>
</svg>
