<?xml version="1.0" standalone="no"?>
<!DOCTYPE svg PUBLIC "-//W3C//DTD SVG 20010904//EN"
 "http://www.w3.org/TR/2001/REC-SVG-20010904/DTD/svg10.dtd">
<svg version="1.0" xmlns="http://www.w3.org/2000/svg"
 width="287.051024pt" height="125.000000pt" viewBox="0 0 287.051024 125.000000"
 preserveAspectRatio="xMidYMid meet">
<metadata>
Created by Potrace Professional 1.1m
</metadata>
<g transform="translate(-35.943561,201.000000) rotate(-360.00) scale(0.095238,-0.095238)"
fill="#000000" stroke="none">
<path d="M378 1969 l0 -141 601 -3 601 -3 54 -29 c73 -38 137 -113 158 -186
21 -70 23 -226 4 -293 -19 -70 -59 -125 -114 -160 -98 -62 -99 -62 -729 -62
l-576 0 3 -144 3 -145 546 -3 c320 -2 579 2 626 8 225 29 417 173 505 378 l35
79 0 189 c0 186 -1 191 -32 266 -59 145 -168 263 -304 328 -130 62 -133 63
-785 63 l-596 0 0 -142z"/>
<path d="M1959 2076 c15 -18 70 -82 122 -141 l93 -108 398 0 c218 0 408 -4
422 -9 68 -26 111 -116 94 -193 -14 -58 -39 -91 -88 -114 -41 -18 -74 -20
-430 -20 l-386 0 375 -346 375 -347 208 0 c114 0 208 2 208 4 0 4 -331 301
-401 360 l-40 33 33 6 c18 4 46 7 63 7 16 0 68 12 113 27 110 36 193 109 237
205 57 129 46 318 -27 445 -47 83 -152 173 -180 156 -7 -4 -9 -3 -5 4 8 12
-64 43 -111 48 -16 2 -32 7 -36 11 -4 3 -245 7 -536 7 l-530 0 29 -35z m1149
-23 c0 -2 -5 -7 -10 -11 -6 -3 -11 -1 -11 5 0 6 5 11 11 11 5 0 10 -2 10 -5z"/>
</g>
</svg>
