<?xml version="1.0" standalone="no"?>
<!DOCTYPE svg PUBLIC "-//W3C//DTD SVG 20010904//EN"
 "http://www.w3.org/TR/2001/REC-SVG-20010904/DTD/svg10.dtd">
<svg version="1.0" xmlns="http://www.w3.org/2000/svg"
 width="290.196120pt" height="333.013160pt" viewBox="0 0 290.196120 333.013160"
 preserveAspectRatio="xMidYMid meet">
<metadata>
Created by Potrace Professional 1.1m
</metadata>
<g transform="translate(-35.389869,348.198505) rotate(-360.00) scale(0.095238,-0.095238)"
fill="#000000" stroke="none">
<path d="M3340 3619 c-28 -30 -44 -37 -94 -42 -88 -9 -248 -53 -371 -102 -312
-124 -574 -302 -849 -577 -175 -175 -272 -290 -411 -488 l-88 -125 -73 -18
c-40 -9 -135 -32 -210 -50 -198 -48 -291 -96 -399 -204 -116 -117 -342 -467
-327 -506 11 -29 38 -29 75 -1 21 16 69 43 108 61 59 28 86 34 167 38 107 4
198 -16 231 -53 16 -18 17 -22 0 -56 -15 -32 -15 -39 -1 -65 26 -51 17 -118
-16 -118 -34 -1 -46 -27 -28 -61 9 -17 23 -36 32 -44 9 -7 16 -17 16 -21 1 -4
-36 -18 -81 -31 -150 -44 -222 -101 -380 -306 l-65 -84 54 32 c30 17 72 41 95
53 l41 20 -79 -165 c-96 -200 -151 -297 -253 -447 -74 -108 -76 -112 -38 -87
21 15 40 37 42 51 2 13 8 25 14 27 5 2 10 10 10 19 0 8 5 15 11 15 5 0 10 5
10 12 0 6 18 38 39 70 42 62 278 528 271 535 -2 2 -15 -3 -28 -11 -14 -9 -47
-28 -75 -44 l-49 -28 30 45 c17 25 60 77 96 116 56 61 67 70 82 59 14 -11 15
-11 5 1 -11 12 -9 17 10 27 13 7 40 22 60 33 42 24 164 67 188 66 9 0 1 -7
-17 -15 -19 -8 -34 -18 -34 -21 -1 -3 9 -1 20 5 11 6 29 10 39 10 11 -1 14 -3
6 -6 -7 -3 -10 -10 -7 -15 3 -5 -1 -7 -8 -4 -8 3 -24 -2 -35 -12 -20 -15 -20
-16 4 -4 23 11 25 10 19 -6 -6 -15 -5 -16 8 -6 9 7 28 15 42 16 23 3 13 -10
-58 -76 -78 -73 -90 -89 -149 -211 -80 -162 -78 -157 -54 -136 11 9 54 36 96
60 94 55 184 138 239 221 46 69 58 78 50 38 -4 -21 -2 -25 12 -20 15 5 15 2 5
-29 -7 -19 -20 -45 -29 -57 -9 -12 1 -4 22 18 l39 39 -1 -46 c0 -26 -4 -44 -9
-42 -4 3 -6 -3 -3 -14 8 -30 -37 -150 -77 -201 -37 -49 -105 -110 -124 -111
-6 0 -10 -5 -8 -12 1 -6 -15 -24 -35 -39 -20 -16 -36 -25 -36 -22 0 13 68 127
87 146 10 10 16 22 13 26 -4 3 -15 -4 -25 -16 -9 -13 -78 -51 -152 -86 -77
-36 -199 -108 -286 -166 -84 -57 -161 -108 -172 -114 -28 -16 -54 -39 -49 -44
2 -2 85 51 184 118 176 118 432 257 432 234 0 -6 -19 -44 -43 -84 -23 -41 -42
-75 -41 -78 0 -8 159 127 216 183 76 74 105 131 136 261 15 62 28 115 30 117
2 1 23 -7 47 -20 49 -25 75 -16 75 28 0 14 9 30 20 36 26 13 88 14 101 0 7 -7
29 2 66 28 l55 39 26 -31 c14 -17 41 -61 59 -98 59 -116 53 -282 -14 -414 -22
-43 -14 -70 20 -70 25 0 205 150 328 273 124 124 166 191 201 322 19 71 22
115 23 325 l2 243 163 167 c248 255 408 463 551 718 174 310 262 593 275 885
6 139 7 146 36 183 17 21 28 44 25 53 -3 8 -5 16 -5 19 0 17 -44 -2 -73 -31z
m33 -27 c-43 -39 -57 -21 -17 21 20 21 33 27 40 20 7 -7 0 -21 -23 -41z m-49
-34 c5 -8 3 -9 -6 -4 -10 7 -12 4 -7 -10 7 -17 5 -17 -11 -5 -10 8 -5 -1 13
-21 17 -19 25 -32 18 -28 -8 5 -13 1 -13 -9 0 -9 -5 -16 -11 -16 -6 0 -10 -8
-8 -17 2 -10 -3 -20 -11 -23 -10 -3 -12 0 -7 9 6 8 3 11 -6 8 -15 -5 -101 93
-90 104 3 3 34 9 67 13 33 5 62 9 63 10 1 0 5 -4 9 -11z m-158 -43 c10 -28 47
-68 115 -119 29 -22 44 -37 34 -33 -22 8 -23 -8 -3 -48 8 -16 12 -28 7 -28 -4
0 -6 -15 -3 -32 3 -20 -2 -39 -11 -50 -24 -27 -33 -65 -17 -66 8 0 2 -7 -12
-15 -14 -9 -20 -15 -11 -16 10 0 7 -8 -10 -26 -14 -15 -21 -26 -16 -26 4 0 3
-7 -4 -15 -9 -10 -9 -17 -2 -22 7 -4 3 -15 -10 -29 -11 -12 -20 -27 -20 -32 0
-15 -26 -36 -40 -31 -8 2 -12 -1 -11 -8 5 -20 -15 -22 -38 -5 -16 12 -17 18
-6 31 7 9 8 16 2 16 -5 0 -13 -7 -17 -16 -8 -22 -101 50 -232 179 -78 76 -183
209 -183 229 0 4 165 83 213 101 16 6 28 6 28 1 0 -5 -6 -12 -13 -14 -7 -3 -3
-5 10 -4 17 1 22 6 18 18 -3 12 2 20 19 24 13 3 62 17 108 32 104 32 97 32
105 4z m69 -58 c13 -17 13 -17 -4 -4 -10 8 -18 16 -18 19 0 8 9 3 22 -15z
m-522 -192 c92 -130 381 -387 466 -414 13 -4 24 -11 24 -16 0 -12 -24 -3 -79
28 -45 26 -63 31 -53 14 11 -17 -1 -12 -17 7 -12 16 -12 17 2 9 22 -12 3 5
-49 45 -46 35 -63 42 -50 20 4 -7 3 -9 -2 -4 -5 5 -10 12 -10 16 0 4 -38 42
-84 85 -46 43 -63 56 -37 29 26 -27 41 -49 35 -49 -7 0 -40 31 -73 68 -63 71
-81 99 -55 84 8 -5 12 -6 10 -3 -3 4 -9 5 -12 4 -10 -2 -41 26 -41 37 0 6 6 7
13 2 9 -5 9 -2 -1 10 -8 10 -19 15 -25 11 -6 -3 -8 0 -6 8 7 19 -11 54 -23 46
-5 -3 -9 4 -8 16 3 36 22 23 75 -53z m7 -108 c23 -28 39 -56 35 -61 -3 -5 -1
-8 4 -7 5 2 52 -36 104 -84 52 -48 113 -99 135 -114 21 -15 56 -43 77 -63 20
-19 46 -38 56 -41 14 -4 18 -13 13 -34 -5 -22 -4 -25 5 -12 9 12 11 13 11 0 1
-18 -105 -218 -147 -279 -17 -25 -31 -48 -31 -52 0 -13 -87 -131 -97 -131 -5
0 -7 7 -4 17 6 13 4 14 -7 5 -8 -6 -18 -9 -22 -5 -3 4 -6 1 -6 -6 0 -6 7 -15
15 -18 9 -4 16 -10 16 -14 0 -33 -381 -479 -400 -467 -5 3 -3 13 6 22 21 20
21 31 0 14 -12 -10 -21 -7 -47 17 -17 17 -31 36 -31 43 0 8 -5 14 -11 14 -17
0 -13 -10 26 -57 l36 -45 -33 -41 c-26 -32 -28 -37 -8 -20 14 11 32 28 39 37
8 9 13 11 13 3 1 -17 -289 -291 -312 -296 -15 -3 -13 2 8 26 18 21 19 24 4 12
-27 -23 -40 -24 -31 -2 4 12 1 15 -14 10 -14 -4 -23 2 -35 27 -10 20 -19 28
-23 21 -5 -7 4 -25 19 -40 30 -29 35 -55 15 -74 -9 -9 -9 -13 -1 -13 7 0 15 5
19 11 3 5 11 10 17 10 18 0 0 -18 -141 -139 -223 -191 -223 -191 -245 -172
-88 73 -172 160 -172 177 0 15 5 19 17 14 13 -5 15 -3 6 7 -8 10 -6 21 9 40
11 14 20 31 20 38 0 6 15 35 32 63 70 110 134 223 129 228 -2 2 7 25 21 50 25
45 27 72 5 72 -6 0 -56 -41 -111 -92 -55 -50 -104 -92 -109 -92 -5 0 -9 -3 -9
-7 0 -8 -46 -61 -132 -154 -25 -27 -48 -43 -55 -39 -7 4 -9 13 -5 19 4 7 2 8
-5 4 -8 -5 -51 25 -106 72 l-94 79 48 92 c85 160 223 391 332 554 57 86 105
159 107 160 1 2 10 0 20 -4 14 -5 15 -9 4 -24 -12 -15 -12 -15 5 -2 16 12 22
12 42 -5 l23 -20 -23 27 c-19 21 -21 29 -11 41 11 13 10 13 -5 1 -15 -12 -19
-11 -24 2 -8 20 61 110 219 288 63 71 119 126 124 123 6 -4 7 -14 4 -24 -4 -9
-4 -14 0 -10 4 4 19 3 34 -3 23 -9 25 -8 13 6 -11 13 -10 19 1 34 13 17 13 17
-4 4 -15 -12 -22 -12 -32 -2 -13 13 -8 19 135 146 129 116 334 259 353 248 7
-5 9 -3 5 4 -4 7 5 18 22 27 28 15 29 14 64 -39 19 -29 54 -76 76 -105z m-59
124 c3 -10 1 -14 -5 -10 -5 3 -10 11 -10 16 0 15 8 12 15 -6z m273 -309 c-3
-2 -20 11 -39 30 l-34 35 39 -29 c22 -17 37 -33 34 -36z m-1467 -732 c-10 -3
-16 -9 -12 -15 3 -5 -2 -17 -11 -26 -9 -9 -16 -24 -16 -34 0 -10 -14 -31 -32
-48 -20 -19 -30 -37 -26 -46 3 -9 -4 -27 -17 -40 -12 -14 -24 -37 -25 -53 -2
-15 -9 -33 -16 -39 -10 -9 -12 -8 -6 7 4 12 2 16 -5 12 -6 -4 -8 -14 -5 -22 3
-8 -10 -30 -29 -50 -18 -19 -43 -54 -54 -78 -12 -24 -25 -44 -29 -44 -4 0 -8
-7 -8 -16 0 -8 -4 -15 -9 -15 -4 0 -19 -20 -32 -43 -27 -47 -68 -70 -92 -51
-7 7 -14 8 -14 4 0 -4 8 -15 18 -23 18 -14 17 -15 -2 -8 -12 4 -37 9 -55 13
-34 5 -45 18 -23 25 6 2 12 11 13 20 2 8 9 26 16 39 20 37 8 27 -28 -22 l-33
-46 -80 -6 c-62 -5 -98 -15 -160 -44 -45 -21 -93 -50 -109 -65 -17 -16 -35
-25 -45 -21 -13 5 -5 25 43 104 253 418 344 496 677 586 89 24 166 45 172 47
6 2 20 3 32 3 17 0 18 -1 2 -5z m314 -453 c-16 -17 -27 -37 -25 -45 1 -8 -3
-14 -9 -12 -7 1 -26 -16 -42 -37 -47 -61 -456 -562 -479 -585 -19 -20 -19 -18
3 37 44 113 113 207 266 364 59 60 87 82 93 73 6 -7 7 -4 3 9 -4 17 16 43 98
124 57 56 107 102 112 102 5 0 -4 -14 -20 -30z m-66 -123 c-3 -8 -11 -15 -16
-15 -7 0 -6 6 2 15 7 9 15 16 17 16 2 0 1 -7 -3 -16z m-24 -35 c0 -13 -13 -23
-23 -16 -11 6 -2 25 13 25 5 0 10 -4 10 -9z m-392 -109 c48 -40 87 -76 87 -81
0 -5 -7 -12 -16 -15 -9 -3 -14 -2 -11 3 6 9 -70 75 -87 75 -6 0 -14 5 -18 12
-5 8 -3 9 7 4 8 -5 -8 12 -35 37 -28 26 -50 50 -50 55 0 11 8 5 123 -90z
m-202 76 c4 -6 0 -8 -10 -4 -18 7 -21 15 -6 15 5 0 13 -5 16 -11z m553 -8 c-6
-10 -10 -22 -10 -27 0 -14 -58 -101 -67 -101 -28 0 -16 37 28 88 52 60 66 72
49 40z m-489 -47 c-5 -30 -5 -31 5 -9 10 25 11 25 34 5 55 -47 122 -109 116
-109 -4 0 3 -9 16 -19 l22 -20 -31 -29 -30 -29 -30 21 c-16 12 -50 43 -76 70
-26 26 -52 48 -58 48 -6 0 27 -36 72 -79 46 -44 80 -82 76 -86 -4 -4 -42 28
-86 71 -84 83 -83 81 -50 160 21 48 28 50 20 5z m1182 -296 c-12 -145 -47
-269 -96 -344 -50 -76 -153 -182 -299 -310 -113 -99 -137 -116 -145 -102 -6
10 -6 20 -1 24 6 4 18 26 27 49 68 163 61 309 -19 438 -28 44 -32 58 -11 41
18 -15 32 -3 17 15 -8 9 -3 19 17 35 16 12 24 22 19 22 -5 0 7 10 26 21 24 15
33 27 28 39 -5 14 -4 15 12 2 10 -8 15 -9 11 -3 -4 6 8 26 27 43 19 17 44 43
56 57 31 34 85 83 93 83 3 0 12 4 19 10 35 29 101 81 126 99 15 11 25 24 22
29 -3 5 7 4 22 -2 36 -13 33 -14 43 13 14 39 17 -115 6 -259z m-802 158 c-27
-40 -123 -165 -137 -180 -7 -7 -8 -3 -4 9 4 11 2 27 -5 35 -9 11 -8 19 7 35
10 11 22 18 26 16 4 -3 7 2 7 10 0 8 23 43 52 78 45 56 53 62 64 47 10 -14 9
-24 -10 -50z m-321 -159 c6 -11 8 -17 3 -13 -12 11 -38 -13 -29 -27 4 -7 -1
-6 -11 3 -24 19 -59 95 -52 114 4 10 16 4 42 -21 20 -19 41 -44 47 -56z m313
69 c0 -6 -2 -11 -5 -11 -2 0 -7 5 -11 11 -3 5 -1 10 5 10 6 0 11 -5 11 -10z
m139 -116 c83 -75 56 -70 -31 6 -45 39 -83 79 -85 88 -3 10 9 4 31 -16 19 -18
58 -53 85 -78z m-566 66 c12 -16 41 -49 63 -73 25 -28 35 -46 28 -51 -20 -12
-105 79 -120 129 -10 32 2 30 29 -5z m278 -34 c-1 -29 -50 -94 -50 -66 0 6
-10 9 -21 6 -12 -3 -19 -10 -15 -15 3 -6 11 -6 18 -2 7 4 6 -1 -3 -11 -8 -10
-23 -23 -33 -28 -15 -8 -17 -6 -12 11 2 11 9 21 15 21 5 0 8 3 5 7 -3 5 13 30
36 55 23 26 41 51 41 56 0 5 4 6 10 3 5 -4 9 -20 9 -37z m144 21 c-4 -6 0 -11
9 -11 25 0 82 -53 75 -71 -4 -10 -1 -13 9 -10 22 9 52 -27 36 -43 -7 -7 -19
-12 -26 -12 -8 0 -14 -5 -14 -11 0 -6 -10 -9 -21 -7 -26 4 -115 89 -115 110 0
7 -6 11 -14 7 -7 -4 -4 1 7 9 10 9 16 21 13 27 -4 5 2 12 12 15 31 8 35 7 29
-3z m-45 -103 c-1 -7 3 -13 11 -13 12 -1 102 -79 102 -89 0 -3 -30 18 -68 45
-69 51 -94 80 -61 73 10 -2 18 -10 16 -16z m-65 -60 c9 -11 9 -16 1 -16 -7 0
-12 -10 -12 -22 0 -25 -16 -18 -24 11 -4 15 -1 18 12 13 15 -5 15 -4 3 12 -8
10 -10 18 -4 18 6 0 16 -8 24 -16z m-242 -28 c0 -18 5 -21 26 -17 15 3 27 0
27 -7 0 -6 5 -4 11 5 8 11 9 9 3 -11 -11 -39 -58 -104 -121 -164 -59 -57 -197
-146 -207 -134 -4 4 -1 9 6 12 8 2 14 10 14 18 0 7 19 53 43 101 31 61 64 108
110 154 69 70 88 79 88 43z m181 -25 c62 -43 71 -54 45 -54 -8 0 -13 4 -10 9
3 5 -2 9 -12 9 -20 0 -99 59 -99 75 0 14 6 11 76 -39z"/>
<path d="M3037 3286 c2 -6 8 -12 13 -12 6 0 12 6 14 12 2 6 -4 11 -14 11 -9 0
-16 -5 -13 -11z"/>
<path d="M3240 3159 c3 -5 10 -9 16 -9 5 0 10 4 10 9 0 5 -7 9 -16 9 -8 0 -13
-4 -10 -9z"/>
<path d="M2328 2883 c-82 -32 -157 -112 -185 -197 -12 -36 -15 -114 -8 -171 3
-29 35 -93 59 -118 11 -12 17 -25 14 -28 -4 -4 0 -6 7 -6 8 0 11 -9 8 -21 -3
-12 -1 -21 4 -21 5 0 10 4 10 10 0 6 7 11 15 11 9 0 16 -5 16 -11 0 -6 5 -10
11 -10 6 0 36 -12 66 -26 40 -18 68 -24 107 -21 28 2 54 9 56 15 2 6 10 11 17
11 8 0 26 4 39 9 13 5 27 8 31 8 11 -3 81 78 113 130 67 105 43 281 -50 363
-14 13 -22 28 -18 34 4 7 1 10 -8 6 -8 -3 -32 5 -54 18 -51 30 -189 38 -250
15z m242 -33 c94 -46 161 -152 160 -255 -2 -99 -80 -217 -172 -260 -64 -30
-165 -34 -224 -9 -54 23 -110 67 -101 81 4 6 2 8 -4 4 -15 -9 -38 21 -29 37 5
7 4 9 -3 5 -7 -4 -20 7 -30 27 -24 45 -25 167 -1 220 20 47 95 131 135 152 81
41 180 41 269 -2z"/>
<path d="M2362 2846 c-49 -15 -109 -62 -140 -111 -85 -136 -14 -320 142 -367
65 -19 80 -20 140 -4 58 14 128 74 154 129 23 52 25 140 4 191 -19 46 -20 49
-4 40 8 -5 9 -3 4 5 -4 7 -10 10 -13 7 -8 -8 -34 14 -34 28 0 6 8 4 18 -4 15
-11 15 -10 -2 10 -20 23 -45 33 -32 13 10 -18 -2 -12 -17 7 -13 15 -13 16 1 9
9 -4 4 3 -10 15 -14 12 -34 20 -45 17 -10 -2 -18 -1 -18 3 0 4 -18 6 -40 5
-38 -3 -38 -3 -8 6 28 8 26 9 -21 9 -29 0 -64 -3 -79 -8z m183 -87 c18 -12 37
-29 41 -37 5 -7 19 -22 31 -34 22 -20 24 -37 18 -133 -2 -48 -7 -58 -38 -83
-28 -22 -33 -31 -22 -39 9 -6 6 -8 -10 -4 -16 3 -24 0 -24 -9 0 -12 -39 -25
-89 -29 -10 0 -55 10 -87 19 -7 3 -15 3 -17 2 -5 -2 -82 77 -109 111 -14 18
-12 51 8 123 14 52 86 131 128 140 48 10 137 -4 170 -27z m-125 -375 c4 -6 2
-11 -4 -11 -6 0 -11 5 -11 11 0 5 2 10 4 10 3 0 8 -5 11 -10z"/>
<path d="M2667 2704 c0 -6 5 -18 11 -26 5 -9 10 -12 10 -6 0 6 -5 18 -10 27
-6 8 -11 11 -11 5z"/>
<path d="M2689 2640 c0 -12 3 -15 6 -6 3 7 3 16 -1 20 -3 3 -6 -3 -5 -14z"/>
<path d="M2640 2433 l-20 -23 23 20 c23 19 29 27 20 27 -2 0 -12 -11 -23 -24z"/>
<path d="M2247 2401 c0 -3 8 -11 18 -19 17 -13 17 -13 4 4 -13 18 -22 23 -22
15z"/>
<path d="M2568 2367 c-11 -8 -16 -15 -11 -15 6 1 19 8 31 16 11 9 16 15 10 15
-5 0 -19 -7 -30 -16z"/>
<path d="M2304 2358 c11 -9 28 -16 37 -16 14 1 14 2 1 7 -9 3 -26 10 -37 15
-21 10 -21 10 -1 -6z"/>
<path d="M2499 2342 c-22 -7 -23 -9 -5 -10 11 0 28 4 37 10 18 11 5 11 -32 0z"/>
<path d="M2418 2324 c10 -3 26 -3 36 0 10 2 2 5 -18 5 -20 0 -28 -3 -18 -5z"/>
<path d="M2111 2792 c0 -6 4 -8 10 -4 6 3 11 8 11 11 0 2 -5 5 -11 5 -6 0 -10
-6 -10 -12z"/>
<path d="M2974 2449 c-27 -39 -36 -55 -31 -55 3 0 17 19 33 42 31 47 29 58 -2
13z"/>
<path d="M1775 2378 c0 -9 4 -14 10 -10 6 3 8 11 5 16 -9 15 -15 12 -15 -6z"/>
<path d="M2905 2352 c-10 -17 -16 -31 -14 -31 3 0 16 14 28 31 12 17 18 32 13
32 -4 0 -17 -15 -27 -32z"/>
<path d="M2765 2357 c9 -8 19 -15 23 -15 4 0 2 7 -5 15 -8 9 -18 16 -24 16 -5
0 -2 -7 6 -16z"/>
<path d="M2850 2330 c-4 -6 -16 -9 -27 -6 -16 4 -18 2 -10 -8 6 -7 8 -17 4
-22 -5 -4 -2 -6 7 -3 14 4 50 51 39 51 -3 0 -9 -6 -13 -12z"/>
<path d="M2174 2274 c-9 -10 -9 -16 -2 -16 12 0 27 19 20 27 -3 2 -11 -3 -18
-11z"/>
<path d="M2777 2163 c-3 -6 -1 -10 5 -10 6 0 11 4 11 10 0 6 -2 11 -5 11 -2 0
-7 -5 -11 -11z"/>
<path d="M2005 2063 c-11 -13 -10 -15 4 -9 10 3 18 10 18 16 0 13 -7 11 -22
-7z"/>
<path d="M2595 1947 c-18 -20 -33 -40 -33 -44 0 -4 4 -2 8 3 4 6 22 26 39 44
17 19 28 35 24 35 -3 0 -20 -17 -38 -38z"/>
<path d="M1855 1244 c-16 -15 -35 -23 -42 -19 -7 4 -9 3 -4 -2 4 -5 -1 -18
-11 -30 -10 -12 7 -1 37 24 47 39 63 55 52 53 -1 0 -16 -12 -32 -26z"/>
<path d="M1759 1187 c-3 -5 -2 -12 3 -15 5 -3 9 1 9 10 0 17 -3 19 -12 5z"/>
<path d="M944 2029 c-13 -17 -13 -17 4 -4 10 8 18 16 18 19 0 8 -9 3 -22 -15z"/>
<path d="M892 1987 l-26 -29 29 26 c27 23 34 32 26 32 -2 0 -15 -13 -29 -29z"/>
<path d="M807 1903 c-13 -17 -13 -17 4 -4 10 8 19 16 19 19 0 8 -9 3 -23 -15z"/>
<path d="M1591 1512 c-4 -6 -2 -10 4 -10 6 0 12 4 12 10 0 6 -3 11 -5 11 -3 0
-8 -5 -11 -11z"/>
<path d="M2300 1423 c-15 -17 -11 -19 14 -10 10 4 17 11 17 16 0 15 -17 11
-31 -6z"/>
<path d="M2324 1349 c0 -29 2 -39 4 -23 2 16 2 39 0 52 -3 13 -5 0 -4 -29z"/>
<path d="M2057 1294 c-13 -17 -13 -17 4 -4 17 14 23 23 14 23 -2 0 -10 -9 -18
-19z"/>
<path d="M2162 1294 c-13 -17 -13 -17 4 -4 10 8 18 16 18 19 0 8 -9 3 -22 -15z"/>
<path d="M2312 1223 c0 -17 3 -23 5 -13 3 11 3 25 0 32 -3 7 -5 -1 -5 -19z"/>
<path d="M2300 1159 c1 -12 3 -14 7 -6 3 8 2 17 -1 20 -4 4 -6 -3 -6 -14z"/>
<path d="M1895 934 c-4 -6 -13 -9 -21 -6 -8 3 -11 -2 -8 -13 2 -10 13 -18 24
-18 11 0 17 4 14 9 -3 5 0 15 7 24 9 10 9 15 2 15 -6 0 -14 -5 -18 -11z"/>
<path d="M2027 702 c-66 -70 -130 -131 -142 -137 -12 -5 -29 -20 -36 -32 -9
-14 6 -5 37 20 113 95 289 279 264 276 -1 0 -57 -57 -123 -127z"/>
<path d="M1150 1292 c10 -12 21 -21 24 -21 3 0 -3 9 -14 21 -10 11 -21 21 -24
21 -3 0 3 -10 14 -21z"/>
<path d="M1255 948 c-5 -15 -4 -16 6 -6 7 7 11 16 7 19 -3 3 -9 -3 -13 -13z"/>
<path d="M1203 854 c-6 -15 -5 -17 6 -6 7 7 10 15 7 19 -3 3 -9 -3 -13 -13z"/>
<path d="M1248 832 c-13 -17 -13 -17 4 -4 18 14 23 23 15 23 -3 0 -11 -9 -19
-19z"/>
<path d="M1187 776 c-23 -18 -24 -20 -4 -10 13 6 26 16 30 22 9 15 3 12 -26
-12z"/>
</g>
</svg>
